<?xml version="1.0" standalone="no"?><!DOCTYPE svg PUBLIC "-//W3C//DTD SVG 1.1//EN" "http://www.w3.org/Graphics/SVG/1.1/DTD/svg11.dtd"><svg t="1778267670779" class="icon" viewBox="0 0 1024 1024" version="1.1" xmlns="http://www.w3.org/2000/svg" p-id="3225" xmlns:xlink="http://www.w3.org/1999/xlink" width="64" height="64"><path d="M298.666667 384h128v128H298.666667zM597.333333 384h128v128h-128z" fill="#2c2c2c" p-id="3226"></path><path d="M512 85.376c36.736 0 72.448 4.693333 106.581333 13.44L597.333333 181.461333a341.418667 341.418667 0 0 0-386.56 491.264l14.933334 27.861334-27.989334 125.738666 125.738667-27.946666 27.861333 14.933333A339.626667 339.626667 0 0 0 512 853.333333a341.333333 341.333333 0 0 0 338.944-382.08l84.736-9.984c1.962667 16.64 2.986667 33.578667 2.986667 50.730667 0 235.648-191.018667 426.666667-426.666667 426.666667a424.96 424.96 0 0 1-200.917333-50.176L85.333333 938.709333l50.176-225.749333A424.448 424.448 0 0 1 85.333333 512.042667c0-235.648 191.018667-426.666667 426.666667-426.666667z" fill="#2c2c2c" p-id="3227"></path><path d="M853.333333 42.666667a21.632 21.632 0 0 1 20.053334 13.696l10.837333 26.026666a186.538667 186.538667 0 0 0 96 99.285334l30.634667 13.653333a22.613333 22.613333 0 0 1 0 41.045333l-32.426667 14.421334a186.026667 186.026667 0 0 0-94.72 96l-10.453333 24.192a21.589333 21.589333 0 0 1-39.850667 0l-10.496-24.149334a186.026667 186.026667 0 0 0-94.72-96l-32.426667-14.464a22.613333 22.613333 0 0 1 0-41.088l30.634667-13.653333a186.538667 186.538667 0 0 0 96.042667-99.2l10.794666-26.026667A21.589333 21.589333 0 0 1 853.333333 42.666667zM426.666667 640a42.666667 42.666667 0 0 1 42.666666-42.666667h85.333334a42.666667 42.666667 0 1 1 0 85.333334h-85.333334a42.666667 42.666667 0 0 1-42.666666-42.666667z" fill="#2c2c2c" p-id="3228"></path></svg>