<?xml version="1.0" standalone="no"?><!DOCTYPE svg PUBLIC "-//W3C//DTD SVG 1.1//EN" "http://www.w3.org/Graphics/SVG/1.1/DTD/svg11.dtd"><svg class="icon" width="200px" height="200.00px" viewBox="0 0 1024 1024" version="1.1" xmlns="http://www.w3.org/2000/svg"><path d="M388.88 81.68A150 150 0 0 1 542 231.99999969v520.00000031a190.08 190.08 0 0 1-336.67999969 120.6 190.15999969 190.15999969 0 0 1-43.28000062-125.71999969 190.00000031 190.00000031 0 0 1-27.27999938-286.40000062 190.03999969 190.03999969 0 0 1 54.07999969-213.24 190.00000031 190.00000031 0 0 1 54.12-32.28 150 150 0 0 1 145.92-133.27999969z m1.24000031 60A90.12 90.12 0 0 0 307.59999969 200.43999969a90.12 90.12 0 0 0-5.52 35.20000031 30 30 0 0 1-22.47999938 30.40000031 130.03999969 130.03999969 0 0 0-97.52000062 131.19999938c0.79999969 19.68 6.07999969 38.95999969 15.44000062 56.32000031a30.04000031 30.04000031 0 0 1-7.52000062 37.51999969 130.00000031 130.00000031 0 0 0 18.08000062 214.12000031 30 30 0 0 1 15 30 130.08 130.08 0 0 0 217.75999969 111.52000031A130.00000031 130.00000031 0 0 0 482 752V231.92a90 90 0 0 0-91.92-90.24z" fill="#2c2c2c" /><path d="M635.12 81.68a150 150 0 0 1 145.92 133.27999969 190.00000031 190.00000031 0 0 1 105.07999969 100.8 190.08 190.08 0 0 1 3.04000031 144.72 190.00000031 190.00000031 0 0 1 22.8 234.12c-13.2 20.56000031-30.24 38.23999969-49.99999969 52.28000062A190.00000031 190.00000031 0 1 1 482 752V231.99999969a150 150 0 0 1 153.12-150.31999969z m-1.24000031 60a90 90 0 0 0-84.91999969 55.27999969 90 90 0 0 0-6.96 34.96000031v520.03999969a130.00000031 130.00000031 0 1 0 258.96-16.8 30 30 0 0 1 15-29.95999969 130.08 130.08 0 0 0 18-214.08 30.04000031 30.04000031 0 0 1-7.48000031-37.56 129.96 129.96 0 0 0-82.03999969-187.48000031 30 30 0 0 1-22.51999969-30.39999938 90.07999969 90.07999969 0 0 0-88.04000062-94.00000031z" fill="#2c2c2c" /><path d="M512 362a30 30 0 0 1 30 28.36000031 150 150 0 0 0 100.00000031 133.35999938 30 30 0 1 1-19.96000031 56.56000031 209.95999969 209.95999969 0 0 1-98.32000031-72.07999969 210.28000031 210.28000031 0 0 1-11.71999969-17.68000031c-3.64000031 6.04000031-7.44 12-11.71999969 17.68000031a210 210 0 0 1-98.32000031 72.07999969 30 30 0 1 1-19.92-56.56000031 150.07999969 150.07999969 0 0 0 100.00000031-133.35999938l0.91999969-5.80000031A30 30 0 0 1 512 362zM753.15999969 207.03999969a30 30 0 0 1 28.72000031 31.2 150 150 0 0 1-19.92 68.76 30 30 0 0 1-52.00000031-30 90 90 0 0 0 12-41.23999969 30 30 0 0 1 31.2-28.72000031zM270.92 207.03999969a30 30 0 0 1 31.2 28.76000062c0.55999969 14.47999969 4.68 28.63999969 11.92000031 41.23999969a30 30 0 1 1-52.00000031 29.92000031 150.04000031 150.04000031 0 0 1-19.87999969-68.76 30 30 0 0 1 28.75999969-31.16000062zM179.91999969 425.76000031a30.04000031 30.04000031 0 0 1 29.12000062 52.47999938c-6.67999969 3.72-13.08 7.99999969-19.04000062 12.84a30 30 0 1 1-37.87999969-46.47999938c8.71999969-7.08 18-13.39999969 27.79999969-18.84zM803.28000031 437.43999969a30.04000031 30.04000031 0 0 1 40.8-11.67999938c9.79999969 5.44000031 19.08 11.76 27.79999969 18.79999969a30 30 0 0 1-37.87999969 46.51999969 129.88000031 129.88000031 0 0 0-19.04000062-12.79999969 30.04000031 30.04000031 0 0 1-11.67999938-40.84000031zM167.19999969 716.64000031a30 30 0 0 1 40.88000062-11.44000031A130.00000031 130.00000031 0 0 0 272 722a30 30 0 0 1 0 60 190.00000031 190.00000031 0 0 1-93.40000031-24.52000031 30 30 0 0 1-11.4-40.83999938zM815.96 705.2a30 30 0 0 1 29.47999969 52.27999969A190.00000031 190.00000031 0 0 1 752 782a30 30 0 0 1 0-60c22.39999969 0 44.4-5.80000031 63.96-16.8z" fill="#2c2c2c" /></svg>