<?xml version="1.0" standalone="no"?><!DOCTYPE svg PUBLIC "-//W3C//DTD SVG 1.1//EN" "http://www.w3.org/Graphics/SVG/1.1/DTD/svg11.dtd"><svg class="icon" width="200px" height="200.00px" viewBox="0 0 1024 1024" version="1.1" xmlns="http://www.w3.org/2000/svg"><path d="M256 341.333333L256.00000001 853.333333a85.333333 85.333333 0 0 0 85.33333299 85.333334L853.333333 938.666667a85.333333 85.333333 0 0 0 85.333334-85.333334l0-512a85.333333 85.333333 0 0 0-85.333334-85.33333299l-512-1e-8a85.333333 85.333333 0 0 0-85.333333 85.333333zM853.333333 853.333333l-512 0 0-512L853.333333 341.333333z m-682.666666-85.33333301l0-511.99999998a85.333333 85.333333 0 0 1 85.33333301-85.33333301L767.99999999 170.666667a85.333333 85.333333 0 0 0-85.33333299-85.333334l-426.666667 0a170.666667 170.666667 0 0 0-170.666667 170.666667L85.333333 682.666667a85.333333 85.333333 0 0 0 85.333334 85.33333299z" fill="#2c2c2c" /></svg>