<?xml version="1.0" standalone="no"?><!DOCTYPE svg PUBLIC "-//W3C//DTD SVG 1.1//EN" "http://www.w3.org/Graphics/SVG/1.1/DTD/svg11.dtd"><svg class="icon" width="200px" height="200.00px" viewBox="0 0 1024 1024" version="1.1" xmlns="http://www.w3.org/2000/svg"><path d="M851.91111145 492.08888855h-64v-170.666666c0-47.146667-38.186667-85.333333-85.333334-85.333334h-170.666666V172.08888855c0-58.88-47.786667-106.666667-106.666667-106.666666s-106.666667 47.786667-106.666667 106.666666v64H147.91111145c-47.146667 0-84.906667 38.186667-84.906667 85.333334l-0.213333 162.133333H126.57777745c63.573333 0 115.2 51.626667 115.2 115.2S190.15111145 713.95555555 126.57777745 713.95555555H62.79111145L62.57777745 876.08888855c0 47.146667 38.186667 85.333333 85.333334 85.333334h162.133333v-64c0-63.573333 51.626667-115.2 115.2-115.2 63.573333 0 115.2 51.626667 115.2 115.2v64H702.57777745c47.146667 0 85.333333-38.186667 85.333334-85.333334v-170.666666h64c58.88 0 106.666667-47.786667 106.666666-106.666667s-47.786667-106.666667-106.666666-106.666667z" fill="#2c2c2c" /></svg>