<?xml version="1.0" standalone="no"?><!DOCTYPE svg PUBLIC "-//W3C//DTD SVG 1.1//EN" "http://www.w3.org/Graphics/SVG/1.1/DTD/svg11.dtd"><svg class="icon" width="200px" height="200.00px" viewBox="0 0 1024 1024" version="1.1" xmlns="http://www.w3.org/2000/svg"><path d="M512 876.08888889c-200.75861333 0-364.08888889-163.33027555-364.08888889-364.08888889S311.24138667 147.91111111 512 147.91111111s364.08888889 163.33027555 364.08888889 364.08888889-163.33027555 364.08888889-364.08888889 364.08888889m0-800.99555556C271.08238222 75.09333333 75.09333333 271.08238222 75.09333333 512s195.98904889 436.90666667 436.90666667 436.90666667 436.90666667-195.98904889 436.90666667-436.90666667S752.91761778 75.09333333 512 75.09333333" fill="#2c2c2c" /><path d="M668.81308445 340.62336a36.37248 36.37248 0 0 0-51.4821689 0L504.71822222 453.23605333l-112.61269333-112.61269333a36.37248 36.37248 0 1 0-51.48216889 51.48216889l112.61269333 112.61269333-112.61269333 112.61269333a36.40888889 36.40888889 0 0 0 51.48216889 51.4821689l112.61269333-112.61269334 112.61269333 112.61269334a36.29966222 36.29966222 0 0 0 51.4821689 0 36.37248 36.37248 0 0 0 0-51.4821689L556.20039111 504.71822222l112.61269334-112.61269333a36.37248 36.37248 0 0 0 0-51.48216889" fill="#2c2c2c" /></svg>