<?xml version="1.0" standalone="no"?><!DOCTYPE svg PUBLIC "-//W3C//DTD SVG 1.1//EN" "http://www.w3.org/Graphics/SVG/1.1/DTD/svg11.dtd"><svg class="icon" width="200px" height="200.00px" viewBox="0 0 1024 1024" version="1.1" xmlns="http://www.w3.org/2000/svg"><path d="M861.98 512c0-192.3-158.52-349.98-356.4-349.98a357.3 357.3 0 0 0-302.46 164.88h132.6v70.2H125.6a33.6 33.6 0 0 1-33.6-33.6V152h69.78v111.48A427.92 427.92 0 0 1 505.58 92C741.08 92 932 280.04 932 512s-190.92 420-426.42 420C306.02 932 138.44 796.94 92 614.6l69.42-11.4c40.8 148.56 178.8 258.78 344.16 258.78 197.88 0 356.4-157.68 356.4-349.98z m-417.3 26.04V343.88h67.2V510.2l158.16 158.16-47.52 47.52-177.84-177.84z" fill="#2c2c2c" /></svg>