<?xml version="1.0" standalone="no"?><!DOCTYPE svg PUBLIC "-//W3C//DTD SVG 1.1//EN" "http://www.w3.org/Graphics/SVG/1.1/DTD/svg11.dtd"><svg t="1778260959068" class="icon" viewBox="0 0 1024 1024" version="1.1" xmlns="http://www.w3.org/2000/svg" p-id="3252" xmlns:xlink="http://www.w3.org/1999/xlink" width="64" height="64"><path d="M523.92602557 241.24195902a18.07493692 18.07493692 0 0 1 18.07493692 18.07493692v240.75816448l159.05944803 157.97495161a18.07493692 18.07493692 0 0 1 0 25.66641027l-16.99044131 16.99044132a18.07493692 18.07493692 0 0 1-25.66641028 0l-168.0969169-168.09691608a30.00439599 30.00439599 0 0 1-8.67596979-21.3284262V260.40139236a18.07493692 18.07493692 0 0 1 18.07493692-18.07493692z m-10.84496265 633.70729935a361.498745 361.498745 0 1 0-361.49874498-361.498745 361.498745 361.498745 0 0 0 361.49874498 361.498745zM90.12753125 513.45051336a421.86903525 421.86903525 0 1 1 422.95353168 420.42304057A421.86903525 421.86903525 0 0 1 90.12753125 513.45051336z" fill="#2c2c2c" p-id="3253"></path><path d="M523.92602557 241.24195902a18.07493692 18.07493692 0 0 1 18.07493692 18.07493692v240.75816448l159.05944803 157.97495161a18.07493692 18.07493692 0 0 1 0 25.66641027l-16.99044131 16.99044132a18.07493692 18.07493692 0 0 1-25.66641028 0l-168.0969169-168.09691608a30.00439599 30.00439599 0 0 1-8.67596979-21.3284262V260.40139236a18.07493692 18.07493692 0 0 1 18.07493692-18.07493692z m-10.84496265 633.70729935a361.498745 361.498745 0 1 0-361.49874498-361.498745 361.498745 361.498745 0 0 0 361.49874498 361.498745zM90.12753125 513.45051336a421.86903525 421.86903525 0 1 1 422.95353168 420.42304057A421.86903525 421.86903525 0 0 1 90.12753125 513.45051336z" fill="#2c2c2c" p-id="3254"></path></svg>