<?xml version="1.0" standalone="no"?><!DOCTYPE svg PUBLIC "-//W3C//DTD SVG 1.1//EN" "http://www.w3.org/Graphics/SVG/1.1/DTD/svg11.dtd"><svg t="1778260993410" class="icon" viewBox="0 0 1024 1024" version="1.1" xmlns="http://www.w3.org/2000/svg" p-id="3282" xmlns:xlink="http://www.w3.org/1999/xlink" width="64" height="64"><path d="M914.11465609 524.13759084c-16.19726285-16.19726285-42.37800485-16.19726285-58.57526773 0L553.42522469 826.25175451 553.42522469 97.74775309c0-22.86672403-18.55850066-41.42522469-41.42522469-41.4252247s-41.42522469 18.55850066-41.42522469 41.4252247l0 728.50400142-302.11416367-302.11416367c-16.19726285-16.19726285-42.37800485-16.19726285-58.57526773 0s-16.19726285 42.37800485 0 58.57526771l372.82702222 372.785597c3.81112067 3.8525459 8.40932062 6.8765873 13.50462326 8.98927375C501.22944158 966.60041577 506.6147208 967.67747161 512 967.67747161s10.77055842-1.07705584 15.82443583-3.18974231c5.09530263-2.11268645 9.65207735-5.13672786 13.50462325-8.98927375l372.82702222-372.785597C930.31191893 566.5155957 930.31191893 540.33485369 914.11465609 524.13759084z" fill="#2c2c2c" p-id="3283"></path></svg>