<?xml version="1.0" standalone="no"?><!DOCTYPE svg PUBLIC "-//W3C//DTD SVG 1.1//EN" "http://www.w3.org/Graphics/SVG/1.1/DTD/svg11.dtd"><svg t="1778561967252" class="icon" viewBox="0 0 1024 1024" version="1.1" xmlns="http://www.w3.org/2000/svg" p-id="3473" xmlns:xlink="http://www.w3.org/1999/xlink" width="64" height="64"><path d="M898.13333333 93.86666667H629.33333333c-3.52 0-6.4 2.88-6.4 6.4v59.73333333c0 3.52 2.88 6.4 6.4 6.4h171.09333334L587.84 378.98666667c-53.33333333-41.06666667-118.4-63.25333333-186.77333333-63.25333334-82.02666667 0-159.25333333 32-217.17333334 90.02666667S93.86666667 540.90666667 93.86666667 622.93333333s32 159.25333333 90.02666666 217.17333334C241.81333333 898.13333333 319.04 930.13333333 401.06666667 930.13333333s159.25333333-32 217.17333333-90.02666666C676.26666667 782.18666667 708.26666667 704.96 708.26666667 622.93333333c0-68.37333333-22.18666667-133.22666667-63.14666667-186.56L857.6 223.89333333V394.66666667c0 3.52 2.88 6.4 6.4 6.4h59.73333333c3.52 0 6.4-2.88 6.4-6.4V125.86666667c0-17.6-14.4-32-32-32zM401.06666667 849.06666667c-124.69333333 0-226.13333333-101.44-226.13333334-226.13333334s101.44-226.13333333 226.13333334-226.13333333 226.13333333 101.44 226.13333333 226.13333333-101.44 226.13333333-226.13333333 226.13333334z" fill="#2c2c2c" p-id="3474"></path></svg>