<?xml version="1.0" standalone="no"?><!DOCTYPE svg PUBLIC "-//W3C//DTD SVG 1.1//EN" "http://www.w3.org/Graphics/SVG/1.1/DTD/svg11.dtd"><svg t="1778250799017" class="icon" viewBox="0 0 1024 1024" version="1.1" xmlns="http://www.w3.org/2000/svg" p-id="3221" xmlns:xlink="http://www.w3.org/1999/xlink" width="64" height="64"><path d="M911.73319111 478.50382222l-361.06695111-1.27431111L550.66624 114.70620445c0-20.09770667-16.31118222-36.40888889-36.40888889-36.4088889s-36.40888889 16.31118222-36.40888889 36.4088889l0 362.26844444L111.06531555 475.66392889c-0.03640889 0-0.07281778 0-0.10922666 0-20.06129778 0-36.33607111 16.20195555-36.40888889 36.29966222C74.43797333 532.06129778 90.71274667 548.40888889 110.81045333 548.48170667l367.03800889 1.31072 0 363.14225778c0 20.13411555 16.31118222 36.40888889 36.40888889 36.40888888s36.40888889-16.27477333 36.40888889-36.40888888l0-362.88739556 360.77568 1.27431111c0.07281778 0 0.10922667 0 0.14563555 0 20.06129778 0 36.33607111-16.20195555 36.4088889-36.29966222C948.06926222 494.92423111 931.79448889 478.57664 911.73319111 478.50382222z" fill="#2c2c2c" p-id="3222"></path></svg>