<?xml version="1.0" standalone="no"?><!DOCTYPE svg PUBLIC "-//W3C//DTD SVG 1.1//EN" "http://www.w3.org/Graphics/SVG/1.1/DTD/svg11.dtd"><svg class="icon" width="200px" height="200.00px" viewBox="0 0 1024 1024" version="1.1" xmlns="http://www.w3.org/2000/svg"><path d="M512 99.51875a412.48125 412.48125 0 1 1 0 824.9625h-375.01875a37.51875 37.51875 0 0 1-37.4625-37.4625V512A412.48125 412.48125 0 0 1 512 99.51875zM512 174.5a337.5 337.5 0 0 0-337.5 337.5v337.5h337.5a337.5 337.5 0 0 0 337.275-324.84375L849.5 512a337.5 337.5 0 0 0-337.5-337.5z m-15.01875 191.25c20.75625 0 37.51875 21.09375 37.51875 47.1375v80.325h80.38125c25.9875 0 47.1375 16.875 47.1375 37.51875 0 20.75625-21.15 37.51875-47.1375 37.51875h-80.4375l0.05625 80.38125c0 25.9875-16.7625 47.1375-37.51875 47.1375-20.7 0-37.4625-21.15-37.4625-47.1375l-0.05625-80.4375-80.325 0.05625c-26.04375 0-47.1375-16.7625-47.1375-37.51875 0-20.7 21.09375-37.4625 47.1375-37.4625l80.325-0.05625v-80.325c0-26.04375 16.875-47.1375 37.51875-47.1375z" fill="#2c2c2c" /></svg>