<?xml version="1.0" standalone="no"?><!DOCTYPE svg PUBLIC "-//W3C//DTD SVG 1.1//EN" "http://www.w3.org/Graphics/SVG/1.1/DTD/svg11.dtd"><svg t="1778855067911" class="icon" viewBox="0 0 1024 1024" version="1.1" xmlns="http://www.w3.org/2000/svg" p-id="3709" xmlns:xlink="http://www.w3.org/1999/xlink" width="64" height="64"><path d="M170.666667 533.33333333h128a85.333333 85.333333 0 0 1 85.333333 85.333333v213.333334a85.333333 85.333333 0 0 1-85.333333 85.333333H170.666667a85.333333 85.333333 0 0 1-85.333334-85.333333v-298.666667C85.333333 297.68533333 276.352 106.66666633 512 106.66666633s426.666667 191.018667 426.666667 426.666667v298.666667a85.333333 85.333333 0 0 1-85.333334 85.333333h-128a85.333333 85.333333 0 0 1-85.333333-85.333333v-213.333334a85.333333 85.333333 0 0 1 85.333333-85.333333h128a341.333333 341.333333 0 0 0-682.666666 0z" fill="#2c2c2c" p-id="3710"></path></svg>