<?xml version="1.0" standalone="no"?><!DOCTYPE svg PUBLIC "-//W3C//DTD SVG 1.1//EN" "http://www.w3.org/Graphics/SVG/1.1/DTD/svg11.dtd"><svg class="icon" width="200px" height="200.00px" viewBox="0 0 1024 1024" version="1.1" xmlns="http://www.w3.org/2000/svg"><path d="M952.57331826 604.77839053l-138.42337412-138.42337412c-7.9382584-7.9382584-21.83020928-7.9382584-29.76846768 0l-138.42337412 138.42337412c-7.9382584 7.9382584-6.44983506 29.27232597 12.40352842 29.27232598l102.70121309 0c-42.17199521 96.25137802-138.42337412 163.23043008-249.55898555 163.23043007-106.17420058 0-198.95259112-62.51378203-243.60529218-152.8114667L182.56229316 644.46967988C231.68026426 779.42006651 359.684675 875.67144453 512 875.67144453c155.29217168 0 286.76956992-100.71664805 331.91841269-241.62072802l99.22822471 0C962 634.05071651 960.51157666 612.22050723 952.57331826 604.77839053z" fill="#2c2c2c" /><path d="M512 230.19184092c106.67034141 0 199.94487363 62.51378203 244.59757471 152.81146669l85.33627383 0C793.80815908 247.55678018 664.8114667 151.30540215 513.48842334 151.30540215c-155.29217168 0-286.76956992 100.71664805-331.91841269 241.62072803L80.8533626 392.92613018c-18.8533626 0-16.86879844 21.83020928-9.42668174 29.27232597l138.42337412 138.42337412c7.9382584 7.9382584 21.83020928 7.9382584 29.27232598 1e-8l138.42337412-138.42337413c7.9382584-7.9382584 6.44983506-29.27232597-12.40352842-29.27232597L262.44101445 392.92613018C304.61300967 297.17089297 400.36824687 230.19184092 512 230.19184092z" fill="#2c2c2c" /></svg>