<?xml version="1.0" standalone="no"?><!DOCTYPE svg PUBLIC "-//W3C//DTD SVG 1.1//EN" "http://www.w3.org/Graphics/SVG/1.1/DTD/svg11.dtd"><svg class="icon" width="200px" height="200.00px" viewBox="0 0 1024 1024" version="1.1" xmlns="http://www.w3.org/2000/svg"><path d="M135.01750991 500.62100859c15.18493392 15.18493392 39.72937955 15.18493392 54.91431351 0L473.16385185 217.38898016 473.16385185 900.36148148c0 21.43755379 17.39859437 38.83614816 38.83614815 38.83614815s38.83614816-17.39859437 38.83614815-38.83614815l0-682.97250132 283.23202843 283.23202843c15.18493392 15.18493392 39.72937955 15.18493392 54.91431351 0s15.18493392-39.72937955-1e-8-54.91431348l-349.52533333-349.48649719c-3.57292563-3.61176178-7.88373808-6.4468006-12.6605843-8.42744414C522.09739852 85.81211021 517.04869925 84.80237037 512 84.80237037s-10.09739852 1.00973985-14.83540859 2.99038341c-4.77684622 1.98064355-9.04882252 4.81568237-12.66058431 8.42744414l-349.52533332 349.48649719C119.832576 460.89162903 119.832576 485.43607467 135.01750991 500.62100859z" fill="#2c2c2c" /></svg>