<?xml version="1.0" standalone="no"?><!DOCTYPE svg PUBLIC "-//W3C//DTD SVG 1.1//EN" "http://www.w3.org/Graphics/SVG/1.1/DTD/svg11.dtd"><svg t="1778828901332" class="icon" viewBox="0 0 1024 1024" version="1.1" xmlns="http://www.w3.org/2000/svg" p-id="3649" xmlns:xlink="http://www.w3.org/1999/xlink" width="64" height="64"><path d="M661.1 892.1c-1.3 0-2.5-0.1-3.8-0.2-17.3-1.6-31.6-14.2-35.4-31.1l-131-577.1c-20.1 84.1-44.6 177.6-57.1 224.3-15.3 57.5-30.3 112.5-42.4 154.8-5.9 20.7-10.7 37.2-14.4 49.1-6.1 19.9-8.4 26.5-15.3 33.1-8.3 7.9-19.9 10.9-31 8.1-13.9-3.6-22.8-14-42.1-43.6-11.7-17.9-26.5-42.1-41.6-68.2-11.5-19.9-46.1-80.2-62.7-118.9-40.3 0.2-118.4-0.3-122.3-0.4l0.4-64.7c1.1 0 111.2 0.8 137.5 0.1 17.7-0.4 33.8 11.1 39.2 28 8.9 27.7 55.4 110.9 88.5 164.8 32.7-114.7 100.6-368.5 123.5-485.8 3.7-18.8 19.7-32.2 38.9-32.5 19.2-0.3 35.6 12.6 39.8 31.3l138.6 610.6 130.8-299.5c6.4-14.7 20.9-24.1 36.9-24.1H962v64.7H852.1l-154.2 353c-6.4 14.8-20.9 24.2-36.8 24.2z" fill="#2c2c2c" p-id="3650"></path></svg>