<?xml version="1.0" standalone="no"?><!DOCTYPE svg PUBLIC "-//W3C//DTD SVG 1.1//EN" "http://www.w3.org/Graphics/SVG/1.1/DTD/svg11.dtd"><svg class="icon" width="200px" height="200.00px" viewBox="0 0 1024 1024" version="1.1" xmlns="http://www.w3.org/2000/svg"><path d="M512 876.08888889c-200.75861333 0-364.08888889-163.33027555-364.08888889-364.08888889S311.24138667 147.91111111 512 147.91111111s364.08888889 163.33027555 364.08888889 364.08888889-163.33027555 364.08888889-364.08888889 364.08888889m0-800.99555556C271.08238222 75.09333333 75.09333333 271.08238222 75.09333333 512s195.98904889 436.90666667 436.90666667 436.90666667 436.90666667-195.98904889 436.90666667-436.90666667S752.91761778 75.09333333 512 75.09333333" fill="#2c2c2c" /><path d="M633.82414222 417.66456889l-172.65095111 188.74368-70.66965333-79.18933334a36.40888889 36.40888889 0 1 0-54.32206223 48.49664l97.50300445 109.22666667a36.40888889 36.40888889 0 0 0 26.94257778 12.16056889h0.21845333c10.19448889 0 19.95207111-4.29624889 26.86976-11.83288889l199.84839111-218.45333333a36.40888889 36.40888889 0 0 0-53.73952-49.152" fill="#2c2c2c" /></svg>