<?xml version="1.0" standalone="no"?><!DOCTYPE svg PUBLIC "-//W3C//DTD SVG 1.1//EN" "http://www.w3.org/Graphics/SVG/1.1/DTD/svg11.dtd"><svg t="1778561963994" class="icon" viewBox="0 0 1024 1024" version="1.1" xmlns="http://www.w3.org/2000/svg" p-id="3315" xmlns:xlink="http://www.w3.org/1999/xlink" width="64" height="64"><path d="M725.552795 124.93556074a220.79833564 220.79833564 0 0 1 68.26062416 171.98626777 236.05210607 236.05210607 0 0 1-44.99862394 142.62275968 1148.22761476 1148.22761476 0 0 1-100.29354511 94.19203554 228.80656541 228.80656541 0 0 0-56.05760853 65.59121481 85.03977289 85.03977289 0 0 0-4.19478585 90.37859335V740.80656541h-114.4032827v-51.10013352a194.86692428 194.86692428 0 0 1 19.82990173-106.01370747 467.90942629 467.90942629 0 0 1 123.17420167-141.47872688c16.39780327-16.39780327 30.12619721-30.88888633 41.56652542-44.23593658a156.35115365 156.35115365 0 0 0 35.46501766-96.09875749 152.53770969 152.53770969 0 0 0-40.42249263-114.4032827 162.45266147 162.45266147 0 0 0-120.886136-42.71055828A159.02056298 159.02056298 0 0 0 397.59671728 206.92457883a247.11109068 247.11109068 0 0 0-38.13442697 152.53771148h-98.76816861a305.07542117 305.07542117 0 0 1 72.0740681-218.89161546 266.94099239 266.94099239 0 0 1 204.78187609-80.46364157 262.3648611 262.3648611 0 0 1 188.00272911 64.82852746z m-152.53771147 699.00405739a76.26885573 76.26885573 0 0 1 0 103.72564181 76.26885573 76.26885573 0 0 1-52.62551007 20.97393636 73.59944463 73.59944463 0 0 1-74.36213377-73.21810093 64.82852747 64.82852747 0 0 1 22.1179692-51.48147724 68.64196964 68.64196964 0 0 1 52.24416457-20.59259088 71.31137895 71.31137895 0 0 1 52.62551007 20.59259088z" fill="#2c2c2c" p-id="3316"></path></svg>