<?xml version="1.0" standalone="no"?><!DOCTYPE svg PUBLIC "-//W3C//DTD SVG 1.1//EN" "http://www.w3.org/Graphics/SVG/1.1/DTD/svg11.dtd"><svg class="icon" width="200px" height="200.00px" viewBox="0 0 1024 1024" version="1.1" xmlns="http://www.w3.org/2000/svg"><path d="M730.45333333 802.57934222A361.83153778 361.83153778 0 0 1 512 876.08888889a361.83153778 361.83153778 0 0 1-218.45333333-73.50954667C205.32792889 736.06030222 147.91111111 630.76579555 147.91111111 512c0-200.75861333 163.33027555-364.08888889 364.08888889-364.08888889s364.08888889 163.33027555 364.08888889 364.08888889c0 118.76579555-57.41681778 224.06030222-145.63555556 290.57934222M512 75.09333333C271.08238222 75.09333333 75.09333333 271.08238222 75.09333333 512c0 161.29137778 88.07310222 302.08455111 218.45333334 377.77863111A433.84832 433.84832 0 0 0 511.92718222 948.90666667h0.14563556A433.84832 433.84832 0 0 0 730.45333333 889.77863111c130.38023111-75.69408 218.45333333-216.48725333 218.45333334-377.77863111 0-240.91761778-195.98904889-436.90666667-436.90666667-436.90666667" fill="#2c2c2c" /><path d="M657.56273778 388.93795555C657.56273778 316.19299555 592.24519111 257.13777778 512 257.13777778c-80.31800889 0-145.63555555 59.09162667-145.63555555 131.80017777v17.65831112a36.40888889 36.40888889 0 1 0 72.81777777 0v-17.69472c0-32.51313778 32.69518222-58.94599111 72.81777778-58.94599112 40.15900445 0 72.81777778 26.43285333 72.81777778 58.9824v55.92405334c0.07281778 1.74762667-0.61895111 35.97198222-45.29265778 67.13799111a192.78506667 192.78506667 0 0 1-36.59093333 20.02488889 35.93557333 35.93557333 0 0 0-27.30666667 34.58844444v42.30712889a36.40888889 36.40888889 0 0 0 72.81777778 0v-17.62190222c47.73205333-23.52014222 74.74744889-52.86570667 89.92995555-79.29856 21.11715555-36.99143111 19.33312-68.08462222 19.22389334-68.99484445V388.93795555zM512 694.04444445a36.40888889 36.40888889 0 1 0 0 72.81777777 36.40888889 36.40888889 0 0 0 0-72.81777777" fill="#2c2c2c" /></svg>