<?xml version="1.0" standalone="no"?><!DOCTYPE svg PUBLIC "-//W3C//DTD SVG 1.1//EN" "http://www.w3.org/Graphics/SVG/1.1/DTD/svg11.dtd"><svg class="icon" width="200px" height="200.00px" viewBox="0 0 1024 1024" version="1.1" xmlns="http://www.w3.org/2000/svg"><path d="M510.38435555 608.82488889c-56.63857778 0-115.12035555-14.01742222-173.8183111-41.65404444-45.82968889-21.57226667-91.93244445-51.49582222-137.02257778-88.92871112-44.35057778-36.80711111-78.82524445-73.46631111-100.26097778-98.14471111-13.88088889-15.99715555-11.21848889-40.41386667 5.75715556-53.07733333 15.28035555-11.37777778 36.75022222-9.09084445 49.24302222 5.29066666 19.64942222 22.60764445 51.90542222 56.96853333 93.02471111 90.94257778 40.23182222 33.24586667 80.97564445 59.63093333 121.08231111 78.41564445 48.64 22.77831111 96.41528889 34.33813333 141.99466666 34.33813333s93.35466667-11.54844445 141.99466667-34.33813333c40.10666667-18.78471111 80.85048889-45.16977778 121.08231111-78.41564445 41.11928889-33.97404445 73.38666667-68.34631111 93.03608889-90.95395555 12.50417778-14.38151111 33.98542222-16.67982222 49.2544-5.27928889 16.97564445 12.66346667 19.62666667 37.0688 5.74577778 53.06595556-21.43573333 24.68977778-55.9104 61.34897778-100.27235555 98.16746666-45.10151111 37.43288889-91.20426667 67.34506667-137.02257778 88.92871111-58.69795555 27.63662222-117.17973333 41.64266667-173.81831112 41.64266667z" fill="#2c2c2c" /><path d="M152.58737778 615.99288889c-15.73546667-12.51555555-18.34097778-35.41902222-5.82542223-51.15448889l69.04035556-86.77831111c12.51555555-15.73546667 35.41902222-18.34097778 51.15448889-5.82542222 15.73546667 12.51555555 18.34097778 35.41902222 5.82542222 51.15448888l-69.04035555 86.77831112c-12.51555555 15.73546667-35.41902222 18.34097778-51.15448889 5.82542222zM374.59057778 715.22986667c-18.42062222-8.05546667-26.8288-29.52533333-18.77333333-47.94595556l36.51128888-83.49013333c8.05546667-18.42062222 29.52533333-26.8288 47.94595556-18.77333333 18.42062222 8.05546667 26.8288 29.52533333 18.77333333 47.94595555l-36.51128889 83.49013333c-8.05546667 18.42062222-29.52533333 26.8288-47.94595555 18.77333334zM651.32088889 691.76888889l-55.808-98.66808889c-9.89866667-17.49902222-3.73191111-39.71982222 13.76711111-49.61848889 17.49902222-9.89866667 39.71982222-3.73191111 49.61848889 13.76711111l55.808 98.66808889c9.89866667 17.49902222 3.73191111 39.71982222-13.76711111 49.61848889-17.49902222 9.89866667-39.70844445 3.73191111-49.61848889-13.76711111zM853.44711111 576.31857778l-67.04924444-82.81884445c-12.65208889-15.63306667-10.24-38.55928889 5.38168888-51.21137778 15.63306667-12.65208889 38.55928889-10.24 51.21137778 5.3816889l67.04924445 82.81884444c12.65208889 15.63306667 10.24 38.55928889-5.38168889 51.21137778-15.63306667 12.66346667-38.55928889 10.25137778-51.21137778-5.38168889z" fill="#2c2c2c" /></svg>