<?xml version="1.0" standalone="no"?><!DOCTYPE svg PUBLIC "-//W3C//DTD SVG 1.1//EN" "http://www.w3.org/Graphics/SVG/1.1/DTD/svg11.dtd"><svg class="icon" width="200px" height="200.00px" viewBox="0 0 1024 1024" version="1.1" xmlns="http://www.w3.org/2000/svg"><path d="M513.06666667 773.568c-49.62133333 0-100.82133333-11.488-152.20266667-34.144-41.01333333-18.08-82.41066667-43.392-123.05066667-75.232-69.87733333-54.74133333-117.39733333-112.88533333-130.304-129.408a39.65866667 39.65866667 0 0 1 0-48.896c12.90666667-16.52266667 60.42666667-74.66666667 130.304-129.408 40.64-31.84 82.048-57.152 123.05066667-75.232 51.37066667-22.656 102.58133333-34.144 152.20266667-34.144 49.62133333 0 100.832 11.488 152.20266666 34.144 41.01333333 18.08 82.41066667 43.392 123.05066667 75.232 69.86666667 54.73066667 117.39733333 112.88533333 130.304 129.39733333a39.65866667 39.65866667 0 0 1 0 48.896c-12.896 16.512-60.42666667 74.66666667-130.304 129.39733334-40.64 31.84-82.048 57.152-123.05066667 75.232-51.37066667 22.688-102.58133333 34.16533333-152.20266666 34.16533333zM175.76533333 510.34666667C221.13066667 563.296 357.30133333 705.30133333 513.06666667 705.30133333c155.776 0 291.94666667-142.016 337.30133333-194.96533333C805.01333333 457.39733333 668.832 315.38133333 513.06666667 315.38133333c-155.76533333 0-291.94666667 142.016-337.30133334 194.96533334z" fill="#2c2c2c" /><path d="M513.06666667 642.528c-72.88533333 0-132.18133333-59.296-132.18133334-132.18133333S440.18133333 378.16533333 513.06666667 378.16533333s132.18133333 59.296 132.18133333 132.18133334S585.952 642.528 513.06666667 642.528z m0-196.096c-35.24266667 0-63.91466667 28.672-63.91466667 63.91466667s28.672 63.91466667 63.91466667 63.91466666 63.91466667-28.672 63.91466666-63.91466666-28.672-63.91466667-63.91466666-63.91466667z" fill="#2c2c2c" /></svg>